#!OML:ASF E:\acrobat2\Project_11_07_03\Capture day 1\Session 1\Acrobat.ASF
:FULLY-SPECIFIED
:DEGREES
1112
root 11.1529 4.15172 10.6304 -82.5439 2.91446 168.791
lowerback -14.245765294421087 -6.817736631272424 -1.6207747693321781
upperback -7.249159813297546 -7.851354830216198 8.352094054337579
thorax 2.088760115989739 -4.684365600270552 7.952906547916882
lowerneck -2.8662591030881566 -18.208399542930024 13.487689161423376
upperneck -31.619931432554733 -22.044823986134283 -1.444336578449131
head -11.473772728291147 -10.085510088253244 -0.6677341856535381
rclavicle 2.38542e-15 -1.58034e-14
rhumerus 2.5817949613942015 -4.1349380758487335 56.95561295867763
rradius 62.086378803090824
rwrist -26.972071228847906
rhand -24.77160641715534 -39.34035802680304
rfingers 7.333592346805501
rthumb 2.216477835874123 -69.35376710999599
lclavicle 2.38542e-15 -1.58034e-14
lhumerus 0.44248704103877756 34.539746966798816 -14.458169955837853
lradius 66.6869895921071
lwrist 28.52218212820065
lhand -15.717902615767686 -31.70949476174087
lfingers 7.455561172414845
lthumb 10.280989874248244 -2.957578208128722
rfemur 0.4466126421478863 3.5105613188518694 3.5063871750372146
rtibia 52.82286962043383
rfoot 33.934100836265756 -26.732162026181637
rtoes 25.796265739350805
lfemur -5.435820467174911 -5.541709398489118 -0.6147518378997334
ltibia 34.00163573380639
lfoot 28.956858705396563 5.260369558245901
ltoes 4.47688
1113
root 11.1529 4.15172 10.6304 -82.5439 2.91446 168.791
lowerback -14.305381273826548 -6.81502805364536 -1.614843281953853
upperback -7.28604708642058 -7.904846526599799 8.360044685352818
thorax 2.073438193871156 -4.675567188672597 8.005197788335858
lowerneck -2.7802061869997177 -18.205882263869956 13.507877209097854
upperneck -31.701008625582617 -22.104297692828375 -1.466193804033149
head -11.464736569221444 -10.143309043943775 -0.6626254941412915
rclavicle 2.38542e-15 -1.58034e-14
rhumerus 4.0548741887669095 -1.9751165643832183 60.48896620632724
rradius 62.706216450981
rwrist -26.92160020705524
rhand -24.74358860423229 -39.41931947014323
rfingers 7.360790467665143
rthumb 2.252069157702954 -69.39497605743385
lclavicle 2.38542e-15 -1.58034e-14
lhumerus 2.216081343827433 33.215009992618896 -10.902567958476599
lradius 68.95129639881961
lwrist 28.506520578131752
lhand -15.658801517673286 -31.760211735647843
lfingers 7.393624268036767
lthumb 10.351996688231834 -3.0404849933567815
rfemur 0.6288244690395317 3.751293573112203 3.498770577932443
rtibia 50.382448550336996
rfoot 33.46768335180651 -26.838207903036867
rtoes 25.697795080706126
lfemur -5.471546988958629 -5.837389369658325 -0.8293397206764769
ltibia 31.32521352160778
lfoot 28.599860492276054 5.097130084090352
ltoes 4.47688
1114
root 11.1529 4.15172 10.6304 -82.5439 2.91446 168.791
lowerback -14.230553212873224 -6.740450883415184 -1.6067782759673193
upperback -7.250663904704582 -7.882702651582967 8.376445472453204
thorax 2.0637213380257906 -4.640797231455931 7.980014889597947
lowerneck -2.817563145896671 -18.26041973532299 13.48674661889781
upperneck -31.65210570371276 -22.196664259220675 -1.410584856144455
head -11.404891144365454 -10.107057187415117 -0.6307303414744377
rclavicle 2.38542e-15 -1.58034e-14
rhumerus 1.8730347635213578 -3.4592242464349057 57.20123295373789
rradius 62.710172301083084
rwrist -26.932200294468434
rhand -24.763768952910663 -39.32257388819956
rfingers 7.344130184629763
rthumb 2.3252756571350823 -69.43127897105612
lclavicle 2.38542e-15 -1.58034e-14
lhumerus 0.45717807626064855 32.078154152707754 -11.903258298356523
lradius 69.01289277237203
lwrist 28.424555941802424
lhand -15.631307318891704 -31.66680954482643
lfingers 7.316140064368316
lthumb 10.41444020676362 -3.064474940619819
rfemur 0.24059287407624708 4.022568776918187 3.967360469336293
rtibia 52.63963307314367
rfoot 33.76841337061046 -26.493812282224077
rtoes 26.01786232432028
lfemur -5.504746025289299 -5.854449913675975 -1.2474984443748216
ltibia 33.86661833556923
lfoot 29.00614115404438 5.551199833029954
ltoes 4.47688
1115
root 11.1529 4.15172 10.6304 -82.5439 2.91446 168.791
lowerback -14.140991006060899 -6.748539690973417 -1.5557271473117658
upperback -7.273918468808368 -7.812778225911255 8.314203254499768
thorax 1.9759875825269784 -4.701458408079778 7.936080768981255
lowerneck -2.8818323912408945 -18.26093573495989 13.535336413010183
upperneck -31.646569991742922 -22.11364668936866 -1.4795362763438191
head -11.502861284586944 -10.145537981220802 -0.5919282495906182
rclavicle 2.38542e-15 -1.58034e-14
rhumerus -0.02016015119038239 -8.219667041541193 55.09537384624368
rradius 65.09345185481361
rwrist -26.975166375465147
rhand -24.829620845562353 -39.362902000544764
rfingers 7.34585479173053
rthumb 2.384220709171967 -69.39782192980977
lclavicle 2.38542e-15 -1.58034e-14
lhumerus 2.651812356313682 31.563638784267877 -14.7886988484715
lradius 67.17915411908866
lwrist 28.334977017036035
lhand -15.610132012785744 -31.701262311050396
lfingers 7.28742820546887
lthumb 10.391063278149055 -3.155647761437042
rfemur 0.13596563801076123 3.679806951099243 3.6213853039134434
rtibia 56.59604539663974
rfoot 33.44920022642884 -26.300535768990034
rtoes 25.978896088476954
lfemur -5.659885364652329 -5.383815083531727 -1.2320594574707493
ltibia 38.082418616423666
lfoot 28.72382814825292 5.594909685827918
ltoes 4.47688
1116
root 11.1529 4.15172 10.6304 -82.5439 2.91446 168.791
lowerback -14.19270174815523 -6.688437407512238 -1.6430813007848886
upperback -7.325937781402989 -7.723522087855471 8.32121128089168
thorax 1.9687381525599381 -4.7345675445578586 8.03145571444723
lowerneck -2.787254059507676 -18.26257014244537 13.532917298821157
upperneck -31.720032723839537 -22.128632546695464 -1.5421220306105219
head -11.490732025940899 -10.169990352832146 -0.5171774542389053
rclavicle 2.38542e-15 -1.58034e-14
rhumerus 1.0142722182467303 -5.188360645061961 57.07418614037761
rradius 63.5538991353432
rwrist -26.978337615435834
rhand -24.861605247261533 -39.37387145115345
rfingers 7.261602839490363
rthumb 2.4561771753967485 -69.30462673354066
lclavicle 2.38542e-15 -1.58034e-14
lhumerus 5.30723711430227 28.136096793393683 -19.259289249032875
lradius 67.01414561477432
lwrist 28.405774612248297
lhand -15.58818953299671 -31.672568659328817
lfingers 7.19593846251281
lthumb 10.298017057033556 -3.0686590620408833
rfemur 0.11329422082712137 3.6384670754748574 3.5884055530494043
rtibia 55.88923379295046
rfoot 33.35499142843643 -26.696798547013362
rtoes 25.763788441180257
lfemur -5.929746451668667 -5.77832710205204 -1.3025551305790855
ltibia 39.726029010831546
lfoot 29.129903793459842 5.849286658148485
ltoes 4.47688
1117
root 11.1529 4.15172 10.6304 -82.5439 2.91446 168.791
lowerback -14.133400245238088 -6.727117695544393 -1.6168747575384868
upperback -7.39817254567921 -7.760932499411074 8.283489500698566
thorax 1.9861383510480453 -4.637394912728428 7.938578191288762
lowerneck -2.847920481673364 -18.26965887739594 13.57762619593433
upperneck -31.651937150755487 -22.18409458408881 -1.6414478896904672
head -11.40384188359457 -10.247811817572599 -0.5318811432281105
rclavicle 2.38542e-15 -1.58034e-14
rhumerus -0.471805237536731 -8.788223049790684 59.07395942292228
rradius 63.58229323714215
rwrist -27.003404259715055
rhand -24.892927372757164 -39.29257683830022
rfingers 7.334640192319367
rthumb 2.3666646356942245 -69.2365487977761
lclavicle 2.38542e-15 -1.58034e-14
lhumerus 3.287869342018138 25.430720631358646 -19.457322241891045
lradius 67.74531111744028
lwrist 28.414958810923135
lhand -15.666293878031768 -31.57654201685511
lfingers 7.248120779428968
lthumb 10.320588101387804 -2.9740453700797715
rfemur 0.611021780055179 3.727651858450762 3.523638903821988
rtibia 57.28360221350344
rfoot 33.59622764622666 -27.1657672397469
rtoes 25.96302920417368
lfemur -5.950469745606141 -5.678614435640737 -1.6700993402473059
ltibia 35.17137151426637
lfoot 29.16793169685871 5.6508502072948446
ltoes 4.47688
1118
root 11.1529 4.15172 10.6304 -82.5439 2.91446 168.791
lowerback -14.071978913946012 -6.6332353047040815 -1.6024546238920951
upperback -7.313857332917978 -7.809501747178845 8.25322957341401
thorax 1.952760352749935 -4.664305647550528 7.845360627927988
lowerneck -2.8624755228336083 -18.270342216609784 13.672256061270415
upperneck -31.677659491014825 -22.233479297670232 -1.5488965946146334
head -11.352641640891674 -10.33459846230413 -0.579958629913164
rclavicle 2.38542e-15 -1.58034e-14
rhumerus -1.7157568928501232 -6.0541325104388815 57.00976448126445
rradius 66.12175399221042
rwrist -26.96207877552212
rhand -24.81957875346952 -39.223179224756194
rfingers 7.369255720287543
rthumb 2.3727483461650283 -69.15462942487865
lclavicle 2.38542e-15 -1.58034e-14
lhumerus 1.4824823688504392 26.147843154947328 -19.228495365953705
lradius 66.46111571216842
lwrist 28.426016848805173
lhand -15.721126818443278 -31.545361111796787
lfingers 7.177184130405738
lthumb 10.364388819625598 -2.9478186027596527
rfemur 1.0714159115513255 3.8608874317839614 3.732993641220876
rtibia 58.34152594309183
rfoot 33.87419827664146 -26.99881860148027
rtoes 26.427923694006548
lfemur -5.5657220243447565 -5.414182741474303 -2.1194358241912568
ltibia 30.93610859779288
lfoot 29.452134722270795 6.0511178935208765
ltoes 4.47688
1119
root 11.1529 4.15172 10.6304 -82.5439 2.91446 168.791
lowerback -14.134442166318102 -6.565455890108058 -1.7014714619394002
upperback -7.328679365918509 -7.860322871103653 8.334229137633855
thorax 1.8752750780321301 -4.689446629593361 7.9140799595794125
lowerneck -2.8423033900827854 -18.19941775068409 13.676927665663436
upperneck -31.75886205801897 -22.26980809994294 -1.5224777254115391
head -11.359104555783283 -10.235475532129527 -0.5676215546201254
rclavicle 2.38542e-15 -1.58034e-14
rhumerus -2.1176477437397248 -5.041021143375062 55.76971696824572
rradius 65.18702277017628
rwrist -27.003435361096603
rhand -24.839903033587802 -39.13118290307176
rfingers 7.343099931165305
rthumb 2.4411844249842303 -69.17309657460412
lclavicle 2.38542e-15 -1.58034e-14
lhumerus 1.0525358235176556 30.371849551270508 -17.320480416909703
lradius 65.44474599045694
lwrist 28.35422241564626
lhand -15.638389065032156 -31.582652779028706
lfingers 7.231551809772143
lthumb 10.44140178376326 -2.973292082749835
rfemur 0.9339604982815823 3.4409848074720673 3.9848660569407066
rtibia 54.65927256111562
rfoot 34.01938357547781 -27.462576638915877
rtoes 26.069425590457993
lfemur -5.332837488341221 -5.6496759593825505 -2.5788757121978967
ltibia 27.212563682571066
lfoot 29.192065682192137 6.534714434238726
ltoes 4.47688
